<?xml version="1.0" encoding="UTF-8" standalone="no"?>
<!-- Created with Inkscape (http://www.inkscape.org/) -->

<svg
   xmlns:dc="http://purl.org/dc/elements/1.1/"
   xmlns:cc="http://creativecommons.org/ns#"
   xmlns:rdf="http://www.w3.org/1999/02/22-rdf-syntax-ns#"
   xmlns:svg="http://www.w3.org/2000/svg"
   xmlns="http://www.w3.org/2000/svg"
   xmlns:sodipodi="http://sodipodi.sourceforge.net/DTD/sodipodi-0.dtd"
   xmlns:inkscape="http://www.inkscape.org/namespaces/inkscape"
   width="954.35455"
   height="758.30927"
   id="svg2"
   version="1.1"
   inkscape:version="0.47 r22583"
   sodipodi:docname="hummingbird.svg"
   inkscape:export-filename="/home/astraw/src/flydra/figures/hummingbird.png"
   inkscape:export-xdpi="9.4300003"
   inkscape:export-ydpi="9.4300003"
   style="display:inline">
  <sodipodi:namedview
     id="base"
     pagecolor="#ffffff"
     bordercolor="#666666"
     borderopacity="1.0"
     inkscape:pageopacity="0.0"
     inkscape:pageshadow="2"
     inkscape:zoom="0.8029555"
     inkscape:cx="262.57936"
     inkscape:cy="432.43177"
     inkscape:document-units="px"
     inkscape:current-layer="layer2"
     showgrid="false"
     inkscape:window-width="1920"
     inkscape:window-height="1113"
     inkscape:window-x="0"
     inkscape:window-y="27"
     inkscape:window-maximized="1" />
  <defs
     id="defs4">
    <inkscape:perspective
       id="perspective10"
       inkscape:persp3d-origin="372.04724 : 350.78739 : 1"
       inkscape:vp_z="744.09448 : 526.18109 : 1"
       inkscape:vp_y="0 : 1000 : 0"
       inkscape:vp_x="0 : 526.18109 : 1"
       sodipodi:type="inkscape:persp3d" />
    <inkscape:perspective
       sodipodi:type="inkscape:persp3d"
       inkscape:vp_x="0 : 0.5 : 1"
       inkscape:vp_y="0 : 1000 : 0"
       inkscape:vp_z="1 : 0.5 : 1"
       inkscape:persp3d-origin="0.5 : 0.33333333 : 1"
       id="perspective2824" />
  </defs>
  <metadata
     id="metadata7">
    <rdf:RDF>
      <cc:Work
         rdf:about="">
        <dc:format>image/svg+xml</dc:format>
        <dc:type
           rdf:resource="http://purl.org/dc/dcmitype/StillImage" />
        <dc:title />
      </cc:Work>
    </rdf:RDF>
  </metadata>
  <g
     transform="translate(47.452399,-200.30359)"
     style="display:inline"
     inkscape:label="Layer#1"
     id="layer3"
     inkscape:groupmode="layer">
    <path
       style="fill:#000000;fill-opacity:1;stroke:#000000;stroke-width:1px;stroke-linecap:butt;stroke-linejoin:miter;stroke-opacity:1;display:inline"
       d="m 69.700526,209.89496 c 10.976274,-1.84226 16.367581,4.62791 24.243661,8.08122 38.590293,13.55825 91.999723,11.2465 120.208153,30.30458 5.40777,3.74825 8.92133,12.05551 15.15229,16.16244 5.45714,4.81156 8.5472,13.54853 10.10152,23.23351 5.13843,5.97347 6.06649,13.02745 12.12183,18.18274 2.67344,11.69546 5.8803,19.92429 9.09138,31.31473 1.87383,6.8806 5.1435,15.34424 10.10152,19.1929 4.37318,7.01827 11.13162,11.20936 11.11168,23.23351 6.54312,6.01238 0.49385,17.81662 2.02031,27.27412 -1.06795,-0.76089 3.09375,15.72944 7.07106,17.17259 2.38842,9.73748 4.19654,19.15407 6.06092,30.30458 4.99931,8.51837 4.04367,21.53584 6.06091,33.33503 3.26945,6.49603 3.70075,19.12316 7.07107,28.28427 -1.21935,15.5811 5.05704,24.91603 8.08122,36.36549 3.54767,8.01708 7.6983,14.90967 10.10153,23.23351 1.46991,8.08162 8.11644,11.65034 12.12183,20.20305 5.4581,3.27853 10.41473,6.37164 14.14213,10.10153 3.86208,4.06908 8.51065,9.49839 12.12183,15.15229 2.9436,5.53741 11.9021,10.04576 14.14214,15.15228 6.13009,5.9973 7.67528,7.7721 15.15229,12.12183 6.51198,2.57923 9.89998,10.89913 18.18274,13.13199 8.42531,4.63975 14.16732,13.0002 20.20305,16.16244 3.90519,1.83832 6.63312,7.75674 12.12184,11.11168 2.28114,5.78202 9.23155,10.87188 13.13198,14.14213 3.31459,6.18918 10.58652,6.97661 12.12183,14.14214 1.76499,6.61923 5.49113,12.75066 9.09137,18.18274 4.20425,5.26585 7.52146,10.26651 10.10153,17.1726 3.5218,5.43037 8.9816,13.33721 13.13198,19.1929 2.44725,4.90155 4.75332,9.38501 8.08122,14.14213 6.22587,7.79639 9.65439,14.69066 14.14214,21.2132 3.53057,6.11803 3.74858,19.43422 9.09137,23.23351 2.63063,10.4134 5.46922,18.23688 10.10152,27.27412 4.56734,6.76775 5.90926,12.76033 9.53976,17.06425 2.49117,5.29911 3.65594,17.51755 7.63284,24.35201 4.88461,8.15147 6.11975,18.88835 10.10152,26.26396 3.76815,7.67339 7.21318,12.91998 11.11168,21.21321 -0.61991,13.04899 15.30601,13.32367 24.24366,10.10152 24.74227,-7.97602 27.50827,-18.17848 28.28428,-43.43656 -5.92163,-7.95312 -0.6607,-16.7867 -4.04062,-26.26396 -3.56345,-7.31519 -7.9354,-10.7315 -10.10152,-17.1726 0.97461,-10.34921 -2.3446,-21.48926 -8.08122,-25.25381 -4.18439,-7.31501 -5.72439,-17.8455 -8.08122,-26.26397 -5.80252,-5.70599 -5.74506,-20.67987 -10.10153,-29.29442 -4.03212,-9.68982 -3.66023,-22.4093 -5.27602,-32.2541 -3.86625,-8.84935 -4.52539,-20.17607 -3.81535,-31.04488 -1.65255,-10.78971 -1.21421,-24.0738 -3.03046,-35.69597 -1.61542,-11.26411 -4.12181,-22.87286 -8.08122,-33.33504 1.85938,-11.81121 -7.02735,-16.67527 -8.08122,-28.28427 -2.96663,-7.54541 -5.53094,-19.44128 -5.05076,-30.30457 -3.60015,-9.77465 -5.70188,-14.87903 -8.08122,-24.24366 -0.98482,-2.76774 -6.5181,-11.8655 -8.08122,-18.18275 -5.5162,-5.31008 -6.12804,-15.11468 -10.10153,-19.1929 -2.63104,-7.77534 -7.24529,-9.70844 -9.09137,-18.18274 -4.94585,-7.84041 -12.65728,-14.75235 -15.15229,-23.23351 -3.31954,-7.58929 -9.86677,-10.12333 -13.13198,-18.18275 -0.0832,-9.57541 -2.01514,-12.47802 -7.07107,-21.2132 -5.00868,-3.49922 -13.14386,-9.74451 -17.17259,-17.17259 -5.70593,-5.63318 -6.16377,-10.40716 -11.11168,-16.16245 -4.63217,-3.12717 -10.01625,-8.95853 -13.13198,-14.14213 -5.35254,-6.78192 -11.2669,-17.62475 -14.09435,-21.71823 -2.4619,-11.64527 -7.84169,-16.39215 -9.13916,-26.76909 -3.89444,-6.5778 -8.59414,-9.76516 -12.12183,-18.18275 -4.30485,-7.58493 -4.23502,-16.16212 -10.10153,-21.2132 -3.63206,-3.88689 -6.57487,-7.69642 -9.09137,-14.14214 -1.08157,-12.85909 -6.46887,-23.099 -9.09138,-36.36549 -1.15699,-9.49436 -2.80126,-23.77872 -3.03045,-28.28427 -2.23357,-9.03135 -2.70409,-7.407 -8.08122,-11.11168 -4.10589,-5.72217 -7.81406,-8.81977 -12.12183,-16.16244 -14.72343,-10.17702 -23.07043,-12.05496 -43.43656,-13.13198 -16.35502,0.99221 -33.98902,3.72504 -53.53809,7.07106 -10.21635,2.5763 -16.16223,3.80958 -24.24366,9.09138 -7.00461,4.25981 -10.18852,8.69532 -19.97596,6.06091 -9.32935,-1.65673 -13.24733,3.3383 -19.41999,2.02031 -1.78039,1.40691 -4.17466,-4.11381 -14.14213,-2.02031 -20.12651,-4.12495 -23.93827,-6.23601 -50.50763,-11.11168 -16.74051,-0.41905 -31.2788,-3.92206 -48.487323,-4.04061 -6.349657,-2.8767 -15.650935,-6.75061 -20.203051,2.02031 z"
       id="path3616"
       sodipodi:nodetypes="cccccccccccccccccccccccccccccccccccccccccccccccccccccccccccccccccccccccccccccc" />
  </g>
  <g
     transform="translate(47.452399,-200.30359)"
     style="display:inline"
     inkscape:label="Layer"
     id="layer2"
     inkscape:groupmode="layer">
    <path
       id="path2834"
       d="m 320.21875,200.8125 c -16.35502,0.99221 -33.98218,3.71648 -53.53125,7.0625 -10.21635,2.5763 -16.16857,3.81195 -24.25,9.09375 -6.78485,4.12617 -10.00478,8.41023 -19.09375,6.28125 0.0369,0.33493 0.0553,0.63225 -0.0937,0.78125 -0.47619,0.47619 -1.55506,-0.4762 -2.03125,0 -0.24308,0.24307 0.24307,3.78817 0,4.03125 -0.2381,0.23809 -0.7619,-0.2381 -1,0 -0.23809,0.23809 0.2381,0.79315 0,1.03125 -0.23809,0.23809 -0.79315,-0.2381 -1.03125,0 -0.50507,0.50507 0.50508,2.52617 0,3.03125 -0.23809,0.23809 -0.7619,-0.2381 -1,0 -0.50508,0.50507 0.50508,2.52618 0,3.03125 -0.2381,0.2381 -0.76191,-0.23809 -1,0 -0.2381,0.2381 0.15058,0.69883 0,1 -0.21296,0.42591 -0.78704,0.57408 -1,1 -0.40406,0.80812 0.40407,2.22312 0,3.03125 -0.42591,0.85183 -1.60533,1.17942 -2.03125,2.03125 -0.15059,0.30117 0.15058,0.69883 0,1 -0.21296,0.42592 -0.78704,0.60533 -1,1.03125 -0.20026,0.40051 0.20651,2.82474 0,3.03125 -0.13306,0.13306 -0.37917,0.0325 -0.59375,-0.0312 0.53711,0.33717 1.07353,0.67978 1.59375,1.03125 5.40777,3.74825 8.92529,12.04932 15.15625,16.15625 5.45714,4.81156 8.53943,13.56502 10.09375,23.25 5.13843,5.97347 6.06966,13.03221 12.125,18.1875 2.67344,11.69546 5.88267,19.92206 9.09375,31.3125 1.87383,6.8806 5.13573,15.33884 10.09375,19.1875 4.37318,7.01827 11.14494,11.1946 11.125,23.21875 0.16029,0.14729 0.29202,0.31463 0.4375,0.46875 2.21764,-3.55179 1.0422,1.41301 3.59375,0.5625 0.71429,-0.2381 1.31696,-0.79316 2.03125,-1.03125 0.31943,-0.10648 0.7619,0.23809 1,0 2.09004,-2.09004 -3.20401,0.10201 1,-2 0.60234,-0.30117 1.55506,0.47619 2.03125,0 0.23809,-0.23809 -0.2381,-0.79315 0,-1.03125 0.23809,-0.2381 0.66328,0 1,0 0.67343,0 1.42891,0.30117 2.03125,0 0.30117,-0.15058 -0.23809,-0.76191 0,-1 0.2381,-0.2381 0.7619,0.23809 1,0 0.23809,-0.2381 -0.2381,-0.7619 0,-1 0.23809,-0.23809 0.79315,0.2381 1.03125,0 0.23809,-0.23809 -0.2381,-0.79315 0,-1.03125 0.23809,-0.23809 0.69883,0.15059 1,0 0.42592,-0.21296 0.57409,-0.78704 1,-1 0.61339,-0.30669 5.44911,0.30669 6.0625,0 0.42592,-0.21296 0.57408,-0.78704 1,-1 0.30743,-0.15371 2.57632,0 3.03125,0 l 8.09375,0 c 0.66359,0 3.79371,0.11877 4.03125,0 2.69369,-1.34692 -3.00941,-1.0313 1.0312,-1.0313 l 1,0 c 0.33672,0 0.69883,-0.15058 1,0 0.42591,0.21296 0.60533,0.81829 1.03125,1.03125 0.30117,0.15058 0.66328,0 1,0 l 1,0 6.0625,0 c 0.45493,0 2.72382,0.15371 3.03125,0 0.42592,-0.21296 0.60533,-0.81829 1.03125,-1.03125 0.26561,-0.1328 3.50302,0 4.03125,0 0.91052,0 4.39546,-0.21193 5.03125,0 3.93397,1.31133 0.11639,1.03125 4.0625,1.03125 l 1,0 c 0.33671,0 0.69883,0.15058 1,0 0.42592,-0.21296 0.60533,-0.81829 1.03125,-1.03125 0.36531,-0.18265 4.32865,0 5.03125,0 0.52823,0 3.79689,-0.1328 4.0625,0 0.42592,0.21296 0.54824,0.88066 1,1.03125 0.83663,0.27887 4.4201,-0.3212 5.0625,0 0.42592,0.21296 0.57408,0.78704 1,1 0.36531,0.18265 4.3599,0 5.0625,0 l 10.09375,0 c 0.45493,0 2.72382,-0.15371 3.03125,0 0.42592,0.21296 0.57408,0.78704 1,1 0.30742,0.15371 2.57632,0 3.03125,0 l 6.0625,0 c 0.52823,0 3.76564,0.13281 4.03125,0 0.42592,-0.21296 0.60533,-0.78704 1.03125,-1 0.60233,-0.30117 1.52381,0.47619 2,0 0.2381,-0.2381 -0.23809,-0.76191 0,-1 0.2381,-0.2381 0.69454,0 1.03125,0 l 1,0 c 0.67343,0 1.39237,-0.21296 2.03125,0 0.29587,0.0986 1.18709,1.81291 2,1 0.23809,-0.2381 -0.2381,-0.76191 0,-1 0.23809,-0.2381 0.69453,0 1.03125,0 l 1,0 9.09375,0 c 4.59851,0 0.0586,-0.48634 3.03125,1 0.40052,0.20026 2.82474,-0.20651 3.03125,0 0.23809,0.23809 -0.2381,0.76191 0,1 0.0325,0.0325 2.78626,0 3.03125,0 0.16026,0 0.38984,-0.0814 0.59375,-0.125 -2.00122,-4.34411 -3.94841,-8.33884 -4.65625,-14 -3.89444,-6.5778 -8.56606,-9.76991 -12.09375,-18.1875 -4.30485,-7.58493 -4.25849,-16.16767 -10.125,-21.21875 -3.63206,-3.88689 -6.57725,-7.67928 -9.09375,-14.125 -1.08157,-12.85909 -6.47124,-23.10851 -9.09375,-36.375 -1.15699,-9.49436 -2.80206,-23.7757 -3.03125,-28.28125 -2.23357,-9.03135 -2.68537,-7.42032 -8.0625,-11.125 -4.10589,-5.72217 -7.81723,-8.81358 -12.125,-16.15625 -14.72343,-10.17702 -23.07137,-12.04798 -43.4375,-13.125 z m 111.125,172.71875 c -0.23967,0 0.34531,0.17933 0.71875,0.15625 -0.0234,-0.0509 -0.0391,-0.10547 -0.0625,-0.15625 l -0.65625,0 z"
       style="fill:#ec77ea;fill-opacity:1;stroke:#000000;stroke-width:1px;stroke-linecap:butt;stroke-linejoin:miter;stroke-opacity:1" />
  </g>
  <g
     transform="translate(47.452399,-200.30359)"
     style="display:inline"
     inkscape:label="Layer#2"
     id="layer4"
     inkscape:groupmode="layer">
    <g
       style="fill:#584a57;fill-opacity:1"
       id="g3629">
      <path
         style="fill:#584a57;fill-opacity:1;stroke:#000000;stroke-width:1px;stroke-linecap:butt;stroke-linejoin:miter;stroke-opacity:1"
         d="m 286.88332,434.14882 c -3.73509,4.04216 -12.83946,1.16675 -18.8975,2.02031 -10.19999,0 -20.39998,0 -30.59997,0 -7.47032,-0.96047 -16.9814,2.08291 -25.08841,2.02031 -7.51984,-0.67026 -21.08539,2.7062 -23.20057,3.07755 -7.17971,5.22974 -16.92963,4.008 -25.63528,5.00367 -7.50975,-0.28466 -12.08389,3.14671 -19.70683,2.0203 -7.64949,2.39365 -14.89061,-0.78716 -23.0681,0 -7.70564,-0.11705 -15.61284,0.70705 -22.701863,-2.0203 -11.480206,-0.47174 -22.063144,-3.09144 -33.352747,-3.03046 -6.051483,-0.0128 -12.134304,0.0175 -18.165033,0 -6.928789,-2.19155 -17.584727,2.26287 -26.777899,2.0203 -9.06501,-0.55788 -17.6929876,1.6764 -26.7601858,1.01016 -6.0849512,0.94503 -16.3351442,0.50458 -21.2132032,-2.02031 -5.178783,0.30938 -10.671193,0.16643 -13.982366,-2.06484 -10.577077,0.32535 -0.656586,11.9487 4.478166,13.77384 5.14939,4.59868 4.277906,9.08067 11.928503,10.41793 7.362004,6.12801 16.0178187,7.55594 24.6410595,10.46508 6.477622,2.61797 11.8121565,4.78336 20.4118065,6.80394 7.773607,0.055 14.964895,2.28235 22.223356,4.04061 9.224612,1.9861 16.529192,5.69651 24.243661,10.10153 10.124931,3.11256 20.135175,6.65082 31.314729,6.06091 8.291736,3.55828 23.331516,4.29693 33.335036,8.08122 5.21922,2.89937 11.12144,4.92455 19.2066,7.03799 5.68835,2.71849 13.22653,2.6248 19.36411,4.03671 11.19547,1.64006 19.72795,8.76551 33.16825,10.11307 6.61641,5.2434 13.91814,6.64182 20.05926,10.1321 10.29407,3.88183 15.50957,8.53617 24.44631,9.88021 7.27991,2.02952 13.68499,8.80093 22.14636,10.3177 9.00519,2.17297 15.76539,8.12676 25.28084,9.03085 9.92944,1.04048 13.51419,5.59218 23.20649,7.13159 8.31996,-0.29732 14.49917,5.46333 22.05795,5.05076 4.17887,0.25857 9.12807,-0.39499 3.7413,-0.497 -5.23638,-1.81916 -5.57967,-3.97319 -8.69229,-7.53691 -3.14836,-5.33814 -3.87576,-12.67842 -7.00544,-15.19959 -3.29138,-4.02667 -4.40943,-5.37437 -7.07106,-9.09138 -4.43498,-3.23888 -4.9405,-9.53417 -9.09138,-14.14213 -2.53286,-4.44444 -4.46977,-14.08366 -7.17942,-15.71406 -2.96594,-7.32288 -5.04109,-14.36521 -5.95256,-22.67174 -2.83351,-5.07709 -1.83793,-13.93755 -2.0203,-21.08323 0.12374,-8.84928 -4.19961,-14.90893 -5.05077,-22.18793 0.7657,-5.82236 -1.67118,-8.44214 -1.01015,-14.15984 -1.10307,-2.00581 -0.80881,-5.43796 -3.03046,-8.22892 z"
         id="path3623" />
      <path
         style="fill:#584a57;fill-opacity:1;stroke:#000000;stroke-width:1px;stroke-linecap:butt;stroke-linejoin:miter;stroke-opacity:1"
         d="m 454.56865,388.69196 c 10.07129,-1.95717 16.06818,-8.71703 25.66494,-11.16589 4.65949,-1.28529 9.48724,-2.68858 16.52187,-1.96609 8.76711,0.33722 16.58892,-1.65882 25.49341,-1.01016 6.1872,-1.09882 12.57518,-1.71293 19.09022,-2.0203 9.78415,1.51624 16.45703,-4.61127 26.26396,-3.03046 13.67458,0.59876 27.86231,-1.52079 41.00189,1.78473 3.35306,0.48456 12.96976,0.12278 19.12808,0.23558 8.05137,0.009 16.26022,-0.36211 23.74692,1.01015 8.84759,0.18542 17.19776,1.53294 26.33242,1.01015 6.91911,-3.00961 13.42608,-1.54266 23.23351,-2.0203 8.0626,1.59798 11.62011,4.85828 21.98376,4.04061 9.50795,0 19.01591,0 28.52386,0 8.07219,4.18516 18.58858,2.21414 27.65271,4.1091 5.93291,1.24988 12.89151,2.53769 20.73194,1.95181 10.85171,-0.58198 20.75151,1.13002 31.4174,1.01016 6.49161,3.37844 15.47861,0.76096 22.18914,3.03045 7.72376,-0.39857 14.409,1.71005 22.25758,1.01016 9.86254,2.26345 17.39457,5.90316 28.25005,6.06091 5.02789,-1.56056 1.01779,3.63533 -2.99624,5.05076 -7.57605,3.85116 -16.83881,5.84583 -23.23351,11.11168 -6.01603,3.11593 -8.17332,7.30957 -17.17259,8.08122 -9.36816,3.26994 -17.2358,9.85087 -27.27412,12.12183 -9.44863,3.26668 -17.30842,6.63716 -26.32063,9.06838 -9.61384,1.35791 -22.47099,2.56682 -26.2073,7.09406 -8.37164,1.38702 -9.19559,5.81921 -16.16244,8.08122 -1.87173,5.28537 -10.3136,6.74157 -17.1726,11.11168 -3.00019,4.25092 -13.3543,8.31746 -22.22335,9.09137 -9.15379,1.59691 -17.74773,3.34728 -27.27412,3.03046 -7.44429,0.91573 -12.1782,1.87075 -19.05599,2.02031 -7.37928,0.68179 -17.25687,5.11472 -22.36027,9.09137 -7.44022,3.85006 -20.76527,3.14275 -30.30457,7.07107 -9.51445,-1.15415 -14.1718,2.00817 -22.64197,3.04181 -9.86565,1.16952 -19.20997,6.81083 -27.86566,10.09017 -5.21577,3.66175 -11.77646,6.89866 -19.1929,9.09137 -7.40142,5.59449 -18.02001,3.819 -25.25381,8.08122 -6.3174,-0.37588 -10.54941,2.74165 -14.09483,-0.0656 -6.32856,-2.01781 -13.40598,-7.14105 -18.23005,-10.03589 -4.92323,-3.85269 -9.2334,-8.38008 -12.12183,-12.12183 -3.94737,-2.15916 -9.1534,-6.71904 -12.12183,-11.11168 -2.87405,-3.0027 -6.07573,-8.34242 -9.09138,-13.13198 -1.40018,-6.64296 -2.74976,-8.87972 -7.07106,-13.13199 -1.87524,-6.04669 -5.93538,-8.26316 -8.01559,-14.18944 -3.92467,-6.4582 -4.08866,-15.24997 -4.14869,-24.20147 2.04192,-10.30327 4.95269,-18.6671 5.09321,-30.29946 -2.75159,-1.85875 -2.3893,-6.95203 3.03046,-8.08122 z"
         id="path3625" />
    </g>
  </g>
</svg>
