<?xml version="1.0" encoding="UTF-8" standalone="no"?>
<!-- Created with Inkscape (http://www.inkscape.org/) -->
<svg
   xmlns:dc="http://purl.org/dc/elements/1.1/"
   xmlns:cc="http://creativecommons.org/ns#"
   xmlns:rdf="http://www.w3.org/1999/02/22-rdf-syntax-ns#"
   xmlns:svg="http://www.w3.org/2000/svg"
   xmlns="http://www.w3.org/2000/svg"
   xmlns:sodipodi="http://sodipodi.sourceforge.net/DTD/sodipodi-0.dtd"
   xmlns:inkscape="http://www.inkscape.org/namespaces/inkscape"
   width="744.09448819"
   height="1052.3622047"
   id="svg2"
   sodipodi:version="0.32"
   inkscape:version="0.46"
   sodipodi:docname="overview.svg"
   inkscape:output_extension="org.inkscape.output.svg.inkscape">
  <defs
     id="defs4">
    <inkscape:perspective
       sodipodi:type="inkscape:persp3d"
       inkscape:vp_x="1.4285714 : 514.75252 : 1"
       inkscape:vp_y="6.123234e-14 : 1000 : 0"
       inkscape:vp_z="744.09448 : 526.18109 : 1"
       inkscape:persp3d-origin="372.04724 : 350.78739 : 1"
       id="perspective10" />
    <radialGradient
       id="radialGradient2746"
       spreadMethod="pad"
       gradientTransform="matrix(1,-0.57739,0,-1,0,925.74521)"
       gradientUnits="userSpaceOnUse"
       r="24.47998"
       cy="361.72461"
       cx="372.2373"
       fy="361.72461"
       fx="372.2373">
      <stop
         id="stop2748"
         offset="0"
         style="stop-opacity:1;stop-color:#ffffff" />
      <stop
         id="stop2750"
         offset="0.62358"
         style="stop-opacity:1;stop-color:#b2e186" />
      <stop
         id="stop2752"
         offset="1"
         style="stop-opacity:1;stop-color:#d3d3d3" />
    </radialGradient>
    <radialGradient
       id="radialGradient2736"
       spreadMethod="pad"
       gradientTransform="matrix(1,-0.57739,0,-1,0,925.74521)"
       gradientUnits="userSpaceOnUse"
       r="24.47998"
       cy="409.32422"
       cx="372.2373"
       fy="409.32422"
       fx="372.2373">
      <stop
         id="stop2738"
         offset="0"
         style="stop-opacity:1;stop-color:#ffffff" />
      <stop
         id="stop2740"
         offset="0.62358"
         style="stop-opacity:1;stop-color:#b2e186" />
      <stop
         id="stop2742"
         offset="1"
         style="stop-opacity:1;stop-color:#d3d3d3" />
    </radialGradient>
    <radialGradient
       id="radialGradient2726"
       spreadMethod="pad"
       gradientTransform="matrix(1,-0.57739,0,-1,0,925.74521)"
       gradientUnits="userSpaceOnUse"
       r="24.47998"
       cy="361.72754"
       cx="313.30566"
       fy="361.72754"
       fx="313.30566">
      <stop
         id="stop2728"
         offset="0"
         style="stop-opacity:1;stop-color:#ffffff" />
      <stop
         id="stop2730"
         offset="0.62358"
         style="stop-opacity:1;stop-color:#b2e186" />
      <stop
         id="stop2732"
         offset="1"
         style="stop-opacity:1;stop-color:#d3d3d3" />
    </radialGradient>
    <radialGradient
       id="radialGradient2716"
       spreadMethod="pad"
       gradientTransform="matrix(1,-0.57739,0,-1,0,925.74521)"
       gradientUnits="userSpaceOnUse"
       r="24.47998"
       cy="409.32813"
       cx="313.30566"
       fy="409.32813"
       fx="313.30566">
      <stop
         id="stop2718"
         offset="0"
         style="stop-opacity:1;stop-color:#ffffff" />
      <stop
         id="stop2720"
         offset="0.62358"
         style="stop-opacity:1;stop-color:#b2e186" />
      <stop
         id="stop2722"
         offset="1"
         style="stop-opacity:1;stop-color:#d3d3d3" />
    </radialGradient>
    <radialGradient
       id="radialGradient2706"
       spreadMethod="pad"
       gradientTransform="matrix(1,-0.57739,0,-1,0,925.74521)"
       gradientUnits="userSpaceOnUse"
       r="24.48047"
       cy="361.73047"
       cx="254.37109"
       fy="361.73047"
       fx="254.37109">
      <stop
         id="stop2708"
         offset="0"
         style="stop-opacity:1;stop-color:#ffffff" />
      <stop
         id="stop2710"
         offset="0.62358"
         style="stop-opacity:1;stop-color:#b2e186" />
      <stop
         id="stop2712"
         offset="1"
         style="stop-opacity:1;stop-color:#d3d3d3" />
    </radialGradient>
    <radialGradient
       id="radialGradient2696"
       spreadMethod="pad"
       gradientTransform="matrix(1,-0.57739,0,-1,0,925.74521)"
       gradientUnits="userSpaceOnUse"
       r="24.48047"
       cy="409.33105"
       cx="254.37109"
       fy="409.33105"
       fx="254.37109">
      <stop
         id="stop2698"
         offset="0"
         style="stop-opacity:1;stop-color:#ffffff" />
      <stop
         id="stop2700"
         offset="0.62358"
         style="stop-opacity:1;stop-color:#b2e186" />
      <stop
         id="stop2702"
         offset="1"
         style="stop-opacity:1;stop-color:#d3d3d3" />
    </radialGradient>
    <radialGradient
       id="radialGradient2686"
       spreadMethod="pad"
       gradientTransform="matrix(1,-0.57739,0,-1,0,925.74521)"
       gradientUnits="userSpaceOnUse"
       r="24.47998"
       cy="361.73438"
       cx="195.4375"
       fy="361.73438"
       fx="195.4375">
      <stop
         id="stop2688"
         offset="0"
         style="stop-opacity:1;stop-color:#ffffff" />
      <stop
         id="stop2690"
         offset="0.62358"
         style="stop-opacity:1;stop-color:#b2e186" />
      <stop
         id="stop2692"
         offset="1"
         style="stop-opacity:1;stop-color:#d3d3d3" />
    </radialGradient>
    <radialGradient
       id="radialGradient2676"
       spreadMethod="pad"
       gradientTransform="matrix(1,-0.57739,0,-1,0,925.74521)"
       gradientUnits="userSpaceOnUse"
       r="24.47998"
       cy="409.33496"
       cx="195.4375"
       fy="409.33496"
       fx="195.4375">
      <stop
         id="stop2678"
         offset="0"
         style="stop-opacity:1;stop-color:#ffffff" />
      <stop
         id="stop2680"
         offset="0.62358"
         style="stop-opacity:1;stop-color:#b2e186" />
      <stop
         id="stop2682"
         offset="1"
         style="stop-opacity:1;stop-color:#d3d3d3" />
    </radialGradient>
    <radialGradient
       id="radialGradient2666"
       spreadMethod="pad"
       gradientTransform="matrix(1,-0.57739,0,-1,0,925.74521)"
       gradientUnits="userSpaceOnUse"
       r="24.48022"
       cy="361.73633"
       cx="136.50537"
       fy="361.73633"
       fx="136.50537">
      <stop
         id="stop2668"
         offset="0"
         style="stop-opacity:1;stop-color:#ffffff" />
      <stop
         id="stop2670"
         offset="0.62358"
         style="stop-opacity:1;stop-color:#b2e186" />
      <stop
         id="stop2672"
         offset="1"
         style="stop-opacity:1;stop-color:#d3d3d3" />
    </radialGradient>
    <radialGradient
       id="radialGradient2656"
       spreadMethod="pad"
       gradientTransform="matrix(1,-0.57739,0,-1,0,925.74521)"
       gradientUnits="userSpaceOnUse"
       r="24.48022"
       cy="409.33594"
       cx="136.50537"
       fy="409.33594"
       fx="136.50537">
      <stop
         id="stop2658"
         offset="0"
         style="stop-opacity:1;stop-color:#ffffff" />
      <stop
         id="stop2660"
         offset="0.62358"
         style="stop-opacity:1;stop-color:#b2e186" />
      <stop
         id="stop2662"
         offset="1"
         style="stop-opacity:1;stop-color:#d3d3d3" />
    </radialGradient>
    <clipPath
       id="clipPath2652"
       clipPathUnits="userSpaceOnUse">
      <path
         id="path2654"
         d="M 395.37598,526.09131 L 113.56348,363.38672 L 113.56348,271.7959 L 395.37598,434.50098 L 395.37598,526.09131 z" />
    </clipPath>
    <radialGradient
       id="radialGradient2590"
       spreadMethod="pad"
       gradientTransform="matrix(1,-0.57739,0,-1,0,925.74521)"
       gradientUnits="userSpaceOnUse"
       r="20.3999"
       cy="450.01953"
       cx="290.90381"
       fy="450.01953"
       fx="290.90381">
      <stop
         id="stop2592"
         offset="0"
         style="stop-opacity:1;stop-color:#ffffff" />
      <stop
         id="stop2594"
         offset="0.31461"
         style="stop-opacity:1;stop-color:#b2e186" />
      <stop
         id="stop2596"
         offset="1"
         style="stop-opacity:1;stop-color:#c2c1c1" />
    </radialGradient>
    <radialGradient
       id="radialGradient2580"
       spreadMethod="pad"
       gradientTransform="matrix(1,-0.57739,0,-1,0,925.74521)"
       gradientUnits="userSpaceOnUse"
       r="20.3999"
       cy="497.61914"
       cx="290.90381"
       fy="497.61914"
       fx="290.90381">
      <stop
         id="stop2582"
         offset="0"
         style="stop-opacity:1;stop-color:#ffffff" />
      <stop
         id="stop2584"
         offset="0.31461"
         style="stop-opacity:1;stop-color:#b2e186" />
      <stop
         id="stop2586"
         offset="1"
         style="stop-opacity:1;stop-color:#c2c1c1" />
    </radialGradient>
    <radialGradient
       id="radialGradient2570"
       spreadMethod="pad"
       gradientTransform="matrix(1,-0.57739,0,-1,0,925.74521)"
       gradientUnits="userSpaceOnUse"
       r="20.3999"
       cy="450.02246"
       cx="231.97217"
       fy="450.02246"
       fx="231.97217">
      <stop
         id="stop2572"
         offset="0"
         style="stop-opacity:1;stop-color:#ffffff" />
      <stop
         id="stop2574"
         offset="0.31461"
         style="stop-opacity:1;stop-color:#b2e186" />
      <stop
         id="stop2576"
         offset="1"
         style="stop-opacity:1;stop-color:#c2c1c1" />
    </radialGradient>
    <radialGradient
       id="radialGradient2560"
       spreadMethod="pad"
       gradientTransform="matrix(1,-0.57739,0,-1,0,925.74521)"
       gradientUnits="userSpaceOnUse"
       r="20.3999"
       cy="497.62256"
       cx="231.97217"
       fy="497.62256"
       fx="231.97217">
      <stop
         id="stop2562"
         offset="0"
         style="stop-opacity:1;stop-color:#ffffff" />
      <stop
         id="stop2564"
         offset="0.31461"
         style="stop-opacity:1;stop-color:#b2e186" />
      <stop
         id="stop2566"
         offset="1"
         style="stop-opacity:1;stop-color:#c2c1c1" />
    </radialGradient>
    <radialGradient
       id="radialGradient2550"
       spreadMethod="pad"
       gradientTransform="matrix(1,-0.57739,0,-1,0,925.74521)"
       gradientUnits="userSpaceOnUse"
       r="20.40039"
       cy="450.02539"
       cx="173.03809"
       fy="450.02539"
       fx="173.03809">
      <stop
         id="stop2552"
         offset="0"
         style="stop-opacity:1;stop-color:#ffffff" />
      <stop
         id="stop2554"
         offset="0.31461"
         style="stop-opacity:1;stop-color:#b2e186" />
      <stop
         id="stop2556"
         offset="1"
         style="stop-opacity:1;stop-color:#c2c1c1" />
    </radialGradient>
    <radialGradient
       id="radialGradient2540"
       spreadMethod="pad"
       gradientTransform="matrix(1,-0.57739,0,-1,0,925.74521)"
       gradientUnits="userSpaceOnUse"
       r="20.40039"
       cy="497.62598"
       cx="173.03809"
       fy="497.62598"
       fx="173.03809">
      <stop
         id="stop2542"
         offset="0"
         style="stop-opacity:1;stop-color:#ffffff" />
      <stop
         id="stop2544"
         offset="0.31461"
         style="stop-opacity:1;stop-color:#b2e186" />
      <stop
         id="stop2546"
         offset="1"
         style="stop-opacity:1;stop-color:#c2c1c1" />
    </radialGradient>
    <radialGradient
       id="radialGradient2530"
       spreadMethod="pad"
       gradientTransform="matrix(1,-0.57739,0,-1,0,925.74521)"
       gradientUnits="userSpaceOnUse"
       r="20.3999"
       cy="450.02979"
       cx="114.104"
       fy="450.02979"
       fx="114.104">
      <stop
         id="stop2532"
         offset="0"
         style="stop-opacity:1;stop-color:#ffffff" />
      <stop
         id="stop2534"
         offset="0.31461"
         style="stop-opacity:1;stop-color:#b2e186" />
      <stop
         id="stop2536"
         offset="1"
         style="stop-opacity:1;stop-color:#c2c1c1" />
    </radialGradient>
    <radialGradient
       id="radialGradient2520"
       spreadMethod="pad"
       gradientTransform="matrix(1,-0.57739,0,-1,0,925.74521)"
       gradientUnits="userSpaceOnUse"
       r="20.39966"
       cy="497.62988"
       cx="114.104"
       fy="497.62988"
       fx="114.104">
      <stop
         id="stop2522"
         offset="0"
         style="stop-opacity:1;stop-color:#ffffff" />
      <stop
         id="stop2524"
         offset="0.31461"
         style="stop-opacity:1;stop-color:#b2e186" />
      <stop
         id="stop2526"
         offset="1"
         style="stop-opacity:1;stop-color:#c2c1c1" />
    </radialGradient>
    <radialGradient
       id="radialGradient2510"
       spreadMethod="pad"
       gradientTransform="matrix(1,-0.57739,0,-1,0,925.74521)"
       gradientUnits="userSpaceOnUse"
       r="20.3999"
       cy="450.03125"
       cx="55.17188"
       fy="450.03125"
       fx="55.17188">
      <stop
         id="stop2512"
         offset="0"
         style="stop-opacity:1;stop-color:#ffffff" />
      <stop
         id="stop2514"
         offset="0.31461"
         style="stop-opacity:1;stop-color:#b2e186" />
      <stop
         id="stop2516"
         offset="1"
         style="stop-opacity:1;stop-color:#c2c1c1" />
    </radialGradient>
    <radialGradient
       id="radialGradient2500"
       spreadMethod="pad"
       gradientTransform="matrix(1,-0.57739,0,-1,0,925.74521)"
       gradientUnits="userSpaceOnUse"
       r="20.40015"
       cy="497.63135"
       cx="55.17188"
       fy="497.63135"
       fx="55.17188">
      <stop
         id="stop2502"
         offset="0"
         style="stop-opacity:1;stop-color:#ffffff" />
      <stop
         id="stop2504"
         offset="0.31461"
         style="stop-opacity:1;stop-color:#b2e186" />
      <stop
         id="stop2506"
         offset="1"
         style="stop-opacity:1;stop-color:#c2c1c1" />
    </radialGradient>
    <inkscape:perspective
       id="perspective2410"
       inkscape:persp3d-origin="372.04724 : 350.78739 : 1"
       inkscape:vp_z="744.09448 : 526.18109 : 1"
       inkscape:vp_y="0 : 1000 : 0"
       inkscape:vp_x="0 : 526.18109 : 1"
       sodipodi:type="inkscape:persp3d" />
  </defs>
  <sodipodi:namedview
     id="base"
     pagecolor="#ffffff"
     bordercolor="#666666"
     borderopacity="1.0"
     gridtolerance="10000"
     guidetolerance="10"
     objecttolerance="10"
     inkscape:pageopacity="0.0"
     inkscape:pageshadow="2"
     inkscape:zoom="0.56646266"
     inkscape:cx="205.26491"
     inkscape:cy="580.84686"
     inkscape:document-units="px"
     inkscape:current-layer="layer1"
     showgrid="false"
     inkscape:window-width="1383"
     inkscape:window-height="1069"
     inkscape:window-x="308"
     inkscape:window-y="89" />
  <metadata
     id="metadata7">
    <rdf:RDF>
      <cc:Work
         rdf:about="">
        <dc:format>image/svg+xml</dc:format>
        <dc:type
           rdf:resource="http://purl.org/dc/dcmitype/StillImage" />
      </cc:Work>
    </rdf:RDF>
  </metadata>
  <g
     inkscape:label="Layer 1"
     inkscape:groupmode="layer"
     id="layer1">
    <g
       transform="matrix(1.25,0,0,-1.25,56.73318,1317.9914)"
       id="g3025">
      <path
         id="path2608"
         style="fill:none;stroke:#231f20;stroke-width:1.91591012;stroke-linecap:butt;stroke-linejoin:miter;stroke-miterlimit:4;stroke-dasharray:none;stroke-opacity:1"
         d="M 295.78769,460.26065 C 295.44966,460.39942 295.12177,460.53507 294.78204,460.67282" />
      <path
         id="path2614"
         style="fill:none;stroke:#231f20;stroke-width:3.83182025;stroke-linecap:butt;stroke-linejoin:miter;stroke-miterlimit:4;stroke-dasharray:22.99092127;stroke-dashoffset:0;stroke-opacity:1"
         d="M 62.45047,311.03301 C 82.18341,312.45798 107.85398,347.43585 122.17157,363.22437 C 140.14334,383.03922 160.75688,395.43309 179.86616,413.11672 C 196.23901,428.2694 215.62546,450.56242 235.36009,454.77102 C 248.19369,457.50807 254.92571,454.81244 267.38241,449.0929 C 278.70498,443.89324 287.66127,436.89165 297.2683,449.67491" />
      <path
         id="path2616"
         style="fill:none;stroke:#ffffff;stroke-width:3.83182025;stroke-linecap:butt;stroke-linejoin:miter;stroke-miterlimit:4;stroke-dasharray:22.99092127;stroke-dashoffset:0;stroke-opacity:1"
         d="M 61.38227,312.33991 C 81.11522,313.76694 106.7858,348.74275 121.10506,364.53127 C 139.07515,384.34821 159.68868,396.74207 178.79963,414.4257 C 195.1725,429.57733 214.55726,451.87034 234.29358,456.07896 C 247.12719,458.81602 253.85751,456.12038 266.31421,450.40085 C 277.63847,445.20118 286.59307,438.1996 296.20012,450.98286" />
    </g>
    <g
       transform="matrix(1.25,0,0,-1.25,8.161758,1317.9914)"
       id="g3030">
      <path
         id="path2600"
         style="fill:#f5cda4;fill-opacity:1;fill-rule:nonzero;stroke:#231f20;stroke-width:1.91591012;stroke-linecap:butt;stroke-linejoin:miter;stroke-miterlimit:4;stroke-dasharray:none;stroke-opacity:1"
         d="M 352.01554,479.59914 C 350.81213,479.34024 350.18338,480.14282 348.99517,479.59812 C 347.90837,479.09999 347.07342,477.82519 346.29933,476.71918 C 344.80858,474.58691 343.20628,471.59304 342.53359,468.90157 C 341.97582,466.67299 341.76962,463.65944 342.19724,461.49506 C 342.88514,458.02794 345.06549,456.56776 346.97877,459.43737 C 348.41883,461.59655 349.25378,464.19379 351.00819,466.04231 C 352.76597,467.89394 355.76945,469.16254 356.71425,471.78358 C 357.49174,473.93657 357.53569,477.7527 355.7069,478.77482 C 353.93728,479.76588 351.26847,479.18803 349.32982,479.18803" />
      <path
         id="path2602"
         style="fill:#d62f27;fill-opacity:1;fill-rule:nonzero;stroke:#231f20;stroke-width:1.91591012;stroke-linecap:butt;stroke-linejoin:miter;stroke-miterlimit:4;stroke-dasharray:none;stroke-opacity:1"
         d="M 352.35189,477.13031 C 354.04038,477.90078 354.24658,479.50181 356.37961,478.06649 C 357.9667,476.99983 358.29289,475.06328 357.05905,473.5182 C 356.34579,472.62657 353.80207,471.13222 352.68823,471.75149 C 350.51127,472.96313 352.62739,475.06742 352.35189,477.13031" />
      <path
         id="path2604"
         style="fill:#ffffff;fill-opacity:1;fill-rule:nonzero;stroke:#231f20;stroke-width:1.91591012;stroke-linecap:butt;stroke-linejoin:miter;stroke-miterlimit:4;stroke-dasharray:none;stroke-opacity:1"
         d="M 349.32982,468.49043 C 349.72703,465.68505 354.34631,461.74878 356.37961,461.49506 C 359.49969,461.10673 363.88236,461.00731 365.44578,464.78823 C 367.19342,469.01961 365.36127,474.3736 361.0817,473.83818 C 357.68612,473.41152 354.44771,471.81156 351.00819,471.78152" />
      <path
         id="path2606"
         style="fill:#ffffff;fill-opacity:1;fill-rule:nonzero;stroke:#231f20;stroke-width:1.91591012;stroke-linecap:butt;stroke-linejoin:miter;stroke-miterlimit:4;stroke-dasharray:none;stroke-opacity:1"
         d="M 349.66618,474.25035 C 349.71012,477.52072 351.31579,478.49728 352.44146,481.24468 C 353.52657,483.8906 351.20762,486.52617 348.99349,485.36735 C 347.12414,484.38871 345.46775,481.39278 344.62941,479.18699 C 344.31504,478.35955 343.57474,476.35258 344.00743,475.45369 C 344.41307,474.61591 346.28919,474.54757 346.97877,473.83922" />
      <path
         id="path2610"
         style="fill:none;stroke:#231f20;stroke-width:1.91591012;stroke-linecap:butt;stroke-linejoin:miter;stroke-miterlimit:4;stroke-dasharray:none;stroke-opacity:1"
         d="M 344.12575,462.72948 C 343.67108,463.41297 342.97303,464.05297 342.44569,464.78719" />
      <path
         id="path2612"
         style="fill:none;stroke:#231f20;stroke-width:1.91591012;stroke-linecap:butt;stroke-linejoin:miter;stroke-miterlimit:4;stroke-dasharray:none;stroke-opacity:1"
         d="M 344.79674,466.43274 C 343.76066,466.37473 343.06092,467.35233 342.78204,468.49043" />
    </g>
    <path
       d=""
       style="fill:#ffffff;fill-opacity:1;fill-rule:nonzero;stroke:#000000;stroke-width:1.25;stroke-linecap:butt;stroke-linejoin:miter;stroke-miterlimit:4;stroke-dasharray:none;stroke-opacity:1"
       id="path2758" />
    <g
       transform="matrix(0.546443,-0.45852,-0.45852,-0.546443,518.05128,667.00755)"
       id="g3970">
      <g
         id="g3965">
        <rect
           transform="matrix(0.8,0,0,-0.8,-59.10083,885.25024)"
           y="311.92038"
           x="-295.9747"
           height="18.182745"
           width="29.294424"
           id="rect3901"
           style="fill:#ffffff;stroke:#000000;stroke-width:2.5;stroke-miterlimit:4;stroke-dasharray:none;stroke-opacity:1" />
        <path
           transform="matrix(0.8,0,0,-0.8,-59.10083,885.25024)"
           d="M -257.58889,333.13358 A 24.243662,4.0406103 0 1 1 -306.07621,333.13358 A 24.243662,4.0406103 0 1 1 -257.58889,333.13358 z"
           sodipodi:ry="4.0406103"
           sodipodi:rx="24.243662"
           sodipodi:cy="333.13358"
           sodipodi:cx="-281.83255"
           id="path3903"
           style="fill:#ffffff;stroke:#000000;stroke-width:2.5;stroke-miterlimit:4;stroke-dasharray:none;stroke-opacity:1"
           sodipodi:type="arc" />
        <rect
           transform="scale(1,-1)"
           y="-722.99115"
           x="-313.65927"
           height="86.469055"
           width="56.568542"
           id="rect3899"
           style="fill:#ffffff;stroke:#000000;stroke-width:2;stroke-miterlimit:4;stroke-dasharray:none;stroke-opacity:1" />
      </g>
      <g
         id="g3936"
         transform="translate(-4.5714286,218.28571)">
        <path
           transform="matrix(0.8,0,0,-0.8,-59.10083,885.25024)"
           id="path3929"
           d="M -395.71429,799.50504 L -275.54719,591.36952 L -153.93937,802.00044"
           style="fill:none;fill-rule:evenodd;stroke:#000000;stroke-width:1.75234317;stroke-linecap:butt;stroke-linejoin:miter;stroke-opacity:1;stroke-miterlimit:4;stroke-dasharray:1.75234317,7.00937267;stroke-dashoffset:0" />
        <g
           id="g3933">
          <path
             sodipodi:type="arc"
             style="fill:#000000;stroke:none;stroke-width:2.5;stroke-miterlimit:4;stroke-dasharray:none;stroke-opacity:1"
             id="path3931"
             sodipodi:cx="-275.71429"
             sodipodi:cy="590.93359"
             sodipodi:rx="5.7142859"
             sodipodi:ry="5.7142859"
             d="M -270.00001,590.93359 A 5.7142859,5.7142859 0 1 1 -281.42858,590.93359 A 5.7142859,5.7142859 0 1 1 -270.00001,590.93359 z"
             transform="matrix(0.8,0,0,-0.8,-59.10083,885.25024)" />
        </g>
      </g>
    </g>
    <g
       transform="matrix(0.7133306,0,0,-0.7133306,556.22004,786.87896)"
       id="g4000">
      <g
         id="g4002">
        <rect
           transform="matrix(0.8,0,0,-0.8,-59.10083,885.25024)"
           y="311.92038"
           x="-295.9747"
           height="18.182745"
           width="29.294424"
           id="rect4004"
           style="fill:#ffffff;stroke:#000000;stroke-width:2.5;stroke-miterlimit:4;stroke-dasharray:none;stroke-opacity:1" />
        <path
           transform="matrix(0.8,0,0,-0.8,-59.10083,885.25024)"
           d="M -257.58889,333.13358 A 24.243662,4.0406103 0 1 1 -306.07621,333.13358 A 24.243662,4.0406103 0 1 1 -257.58889,333.13358 z"
           sodipodi:ry="4.0406103"
           sodipodi:rx="24.243662"
           sodipodi:cy="333.13358"
           sodipodi:cx="-281.83255"
           id="path4006"
           style="fill:#ffffff;stroke:#000000;stroke-width:2.5;stroke-miterlimit:4;stroke-dasharray:none;stroke-opacity:1"
           sodipodi:type="arc" />
        <rect
           transform="scale(1,-1)"
           y="-722.99115"
           x="-313.65927"
           height="86.469055"
           width="56.568542"
           id="rect4008"
           style="fill:#ffffff;stroke:#000000;stroke-width:2;stroke-miterlimit:4;stroke-dasharray:none;stroke-opacity:1" />
      </g>
      <g
         id="g4010"
         transform="translate(-4.5714286,218.28571)">
        <path
           transform="matrix(0.8,0,0,-0.8,-59.10083,885.25024)"
           id="path4012"
           d="M -395.71429,799.50504 L -275.54719,591.36952 L -153.93937,802.00044"
           style="fill:none;fill-rule:evenodd;stroke:#000000;stroke-width:1.75234316;stroke-linecap:butt;stroke-linejoin:miter;stroke-opacity:1;stroke-miterlimit:4;stroke-dasharray:1.75234316,7.00937265;stroke-dashoffset:0" />
        <g
           id="g4014">
          <path
             sodipodi:type="arc"
             style="fill:#000000;stroke:none;stroke-width:2.5;stroke-miterlimit:4;stroke-dasharray:none;stroke-opacity:1"
             id="path4016"
             sodipodi:cx="-275.71429"
             sodipodi:cy="590.93359"
             sodipodi:rx="5.7142859"
             sodipodi:ry="5.7142859"
             d="M -270.00001,590.93359 A 5.7142859,5.7142859 0 1 1 -281.42858,590.93359 A 5.7142859,5.7142859 0 1 1 -270.00001,590.93359 z"
             transform="matrix(0.8,0,0,-0.8,-59.10083,885.25024)" />
        </g>
      </g>
    </g>
    <g
       transform="matrix(0.45852,0.5464429,0.5464429,-0.45852,557.71715,908.02168)"
       id="g4018">
      <g
         id="g4020">
        <rect
           transform="matrix(0.8,0,0,-0.8,-59.10083,885.25024)"
           y="311.92038"
           x="-295.9747"
           height="18.182745"
           width="29.294424"
           id="rect4022"
           style="fill:#ffffff;stroke:#000000;stroke-width:2.5;stroke-miterlimit:4;stroke-dasharray:none;stroke-opacity:1" />
        <path
           transform="matrix(0.8,0,0,-0.8,-59.10083,885.25024)"
           d="M -257.58889,333.13358 A 24.243662,4.0406103 0 1 1 -306.07621,333.13358 A 24.243662,4.0406103 0 1 1 -257.58889,333.13358 z"
           sodipodi:ry="4.0406103"
           sodipodi:rx="24.243662"
           sodipodi:cy="333.13358"
           sodipodi:cx="-281.83255"
           id="path4024"
           style="fill:#ffffff;stroke:#000000;stroke-width:2.5;stroke-miterlimit:4;stroke-dasharray:none;stroke-opacity:1"
           sodipodi:type="arc" />
        <rect
           transform="scale(1,-1)"
           y="-722.99115"
           x="-313.65927"
           height="86.469055"
           width="56.568542"
           id="rect4026"
           style="fill:#ffffff;stroke:#000000;stroke-width:2;stroke-miterlimit:4;stroke-dasharray:none;stroke-opacity:1" />
      </g>
      <g
         id="g4028"
         transform="translate(-4.5714286,218.28571)">
        <path
           transform="matrix(0.8,0,0,-0.8,-59.10083,885.25024)"
           id="path4030"
           d="M -395.71429,799.50504 L -275.54719,591.36952 L -153.93937,802.00044"
           style="fill:none;fill-rule:evenodd;stroke:#000000;stroke-width:1.75234342;stroke-linecap:butt;stroke-linejoin:miter;stroke-miterlimit:4;stroke-dasharray:1.75234336, 7.00937342;stroke-dashoffset:0;stroke-opacity:1" />
        <g
           id="g4032">
          <path
             sodipodi:type="arc"
             style="fill:#000000;stroke:none;stroke-width:2.5;stroke-miterlimit:4;stroke-dasharray:none;stroke-opacity:1"
             id="path4034"
             sodipodi:cx="-275.71429"
             sodipodi:cy="590.93359"
             sodipodi:rx="5.7142859"
             sodipodi:ry="5.7142859"
             d="M -270.00001,590.93359 A 5.7142859,5.7142859 0 1 1 -281.42858,590.93359 A 5.7142859,5.7142859 0 1 1 -270.00001,590.93359 z"
             transform="matrix(0.8,0,0,-0.8,-59.10083,885.25024)" />
        </g>
      </g>
    </g>
    <path
       style="fill:#ffffff;fill-opacity:1;fill-rule:evenodd;stroke:#000000;stroke-width:2;stroke-linecap:butt;stroke-linejoin:miter;stroke-miterlimit:4;stroke-dasharray:none;stroke-opacity:1"
       d="M 266.56656,468.03417 L 450.16207,468.03417 L 418.22749,587.21564 L 294.81202,587.21564 L 266.56656,468.03417 z"
       id="path4348" />
    <rect
       transform="matrix(0.9610092,0.2765165,0.3420176,0.9396936,0,0)"
       y="458.68317"
       x="263.16174"
       height="145.71416"
       width="219.10609"
       id="rect4036"
       style="fill:#ffffff;stroke:#000000;stroke-width:2.22430921;stroke-miterlimit:4;stroke-dasharray:none;stroke-opacity:1" />
    <g
       transform="matrix(0.5053277,0,0,-0.5349121,208.58878,787.47814)"
       id="g4350">
      <path
         id="path4352"
         style="fill:#f5cda4;fill-opacity:1;fill-rule:nonzero;stroke:#231f20;stroke-width:1.91591012;stroke-linecap:butt;stroke-linejoin:miter;stroke-miterlimit:4;stroke-dasharray:none;stroke-opacity:1"
         d="M 352.01554,479.59914 C 350.81213,479.34024 350.18338,480.14282 348.99517,479.59812 C 347.90837,479.09999 347.07342,477.82519 346.29933,476.71918 C 344.80858,474.58691 343.20628,471.59304 342.53359,468.90157 C 341.97582,466.67299 341.76962,463.65944 342.19724,461.49506 C 342.88514,458.02794 345.06549,456.56776 346.97877,459.43737 C 348.41883,461.59655 349.25378,464.19379 351.00819,466.04231 C 352.76597,467.89394 355.76945,469.16254 356.71425,471.78358 C 357.49174,473.93657 357.53569,477.7527 355.7069,478.77482 C 353.93728,479.76588 351.26847,479.18803 349.32982,479.18803" />
      <path
         id="path4354"
         style="fill:#d62f27;fill-opacity:1;fill-rule:nonzero;stroke:#231f20;stroke-width:1.91591012;stroke-linecap:butt;stroke-linejoin:miter;stroke-miterlimit:4;stroke-dasharray:none;stroke-opacity:1"
         d="M 352.35189,477.13031 C 354.04038,477.90078 354.24658,479.50181 356.37961,478.06649 C 357.9667,476.99983 358.29289,475.06328 357.05905,473.5182 C 356.34579,472.62657 353.80207,471.13222 352.68823,471.75149 C 350.51127,472.96313 352.62739,475.06742 352.35189,477.13031" />
      <path
         id="path4356"
         style="fill:#ffffff;fill-opacity:1;fill-rule:nonzero;stroke:#231f20;stroke-width:1.91591012;stroke-linecap:butt;stroke-linejoin:miter;stroke-miterlimit:4;stroke-dasharray:none;stroke-opacity:1"
         d="M 349.32982,468.49043 C 349.72703,465.68505 354.34631,461.74878 356.37961,461.49506 C 359.49969,461.10673 363.88236,461.00731 365.44578,464.78823 C 367.19342,469.01961 365.36127,474.3736 361.0817,473.83818 C 357.68612,473.41152 354.44771,471.81156 351.00819,471.78152" />
      <path
         id="path4358"
         style="fill:#ffffff;fill-opacity:1;fill-rule:nonzero;stroke:#231f20;stroke-width:1.91591012;stroke-linecap:butt;stroke-linejoin:miter;stroke-miterlimit:4;stroke-dasharray:none;stroke-opacity:1"
         d="M 349.66618,474.25035 C 349.71012,477.52072 351.31579,478.49728 352.44146,481.24468 C 353.52657,483.8906 351.20762,486.52617 348.99349,485.36735 C 347.12414,484.38871 345.46775,481.39278 344.62941,479.18699 C 344.31504,478.35955 343.57474,476.35258 344.00743,475.45369 C 344.41307,474.61591 346.28919,474.54757 346.97877,473.83922" />
      <path
         id="path4360"
         style="fill:none;stroke:#231f20;stroke-width:1.91591012;stroke-linecap:butt;stroke-linejoin:miter;stroke-miterlimit:4;stroke-dasharray:none;stroke-opacity:1"
         d="M 344.12575,462.72948 C 343.67108,463.41297 342.97303,464.05297 342.44569,464.78719" />
      <path
         id="path4362"
         style="fill:none;stroke:#231f20;stroke-width:1.91591012;stroke-linecap:butt;stroke-linejoin:miter;stroke-miterlimit:4;stroke-dasharray:none;stroke-opacity:1"
         d="M 344.79674,466.43274 C 343.76066,466.37473 343.06092,467.35233 342.78204,468.49043" />
    </g>
    <rect
       transform="matrix(-0.9610092,0.2765165,-0.3420176,0.9396936,0,0)"
       y="732.73999"
       x="-592.8158"
       height="145.71416"
       width="219.10609"
       id="rect4364"
       style="fill:#ffffff;stroke:#000000;stroke-width:2.22430921;stroke-miterlimit:4;stroke-dasharray:none;stroke-opacity:1" />
    <g
       transform="matrix(0.8060625,0.2674038,-0.1213825,-0.6578101,0.7524763,827.46174)"
       id="g4366">
      <path
         id="path4368"
         style="fill:#f5cda4;fill-opacity:1;fill-rule:nonzero;stroke:#231f20;stroke-width:1.91591012;stroke-linecap:butt;stroke-linejoin:miter;stroke-miterlimit:4;stroke-dasharray:none;stroke-opacity:1"
         d="M 352.01554,479.59914 C 350.81213,479.34024 350.18338,480.14282 348.99517,479.59812 C 347.90837,479.09999 347.07342,477.82519 346.29933,476.71918 C 344.80858,474.58691 343.20628,471.59304 342.53359,468.90157 C 341.97582,466.67299 341.76962,463.65944 342.19724,461.49506 C 342.88514,458.02794 345.06549,456.56776 346.97877,459.43737 C 348.41883,461.59655 349.25378,464.19379 351.00819,466.04231 C 352.76597,467.89394 355.76945,469.16254 356.71425,471.78358 C 357.49174,473.93657 357.53569,477.7527 355.7069,478.77482 C 353.93728,479.76588 351.26847,479.18803 349.32982,479.18803" />
      <path
         id="path4370"
         style="fill:#d62f27;fill-opacity:1;fill-rule:nonzero;stroke:#231f20;stroke-width:1.91591012;stroke-linecap:butt;stroke-linejoin:miter;stroke-miterlimit:4;stroke-dasharray:none;stroke-opacity:1"
         d="M 352.35189,477.13031 C 354.04038,477.90078 354.24658,479.50181 356.37961,478.06649 C 357.9667,476.99983 358.29289,475.06328 357.05905,473.5182 C 356.34579,472.62657 353.80207,471.13222 352.68823,471.75149 C 350.51127,472.96313 352.62739,475.06742 352.35189,477.13031" />
      <path
         id="path4372"
         style="fill:#ffffff;fill-opacity:1;fill-rule:nonzero;stroke:#231f20;stroke-width:1.91591012;stroke-linecap:butt;stroke-linejoin:miter;stroke-miterlimit:4;stroke-dasharray:none;stroke-opacity:1"
         d="M 349.32982,468.49043 C 349.72703,465.68505 354.34631,461.74878 356.37961,461.49506 C 359.49969,461.10673 363.88236,461.00731 365.44578,464.78823 C 367.19342,469.01961 365.36127,474.3736 361.0817,473.83818 C 357.68612,473.41152 354.44771,471.81156 351.00819,471.78152" />
      <path
         id="path4374"
         style="fill:#ffffff;fill-opacity:1;fill-rule:nonzero;stroke:#231f20;stroke-width:1.91591012;stroke-linecap:butt;stroke-linejoin:miter;stroke-miterlimit:4;stroke-dasharray:none;stroke-opacity:1"
         d="M 349.66618,474.25035 C 349.71012,477.52072 351.31579,478.49728 352.44146,481.24468 C 353.52657,483.8906 351.20762,486.52617 348.99349,485.36735 C 347.12414,484.38871 345.46775,481.39278 344.62941,479.18699 C 344.31504,478.35955 343.57474,476.35258 344.00743,475.45369 C 344.41307,474.61591 346.28919,474.54757 346.97877,473.83922" />
      <path
         id="path4376"
         style="fill:none;stroke:#231f20;stroke-width:1.91591012;stroke-linecap:butt;stroke-linejoin:miter;stroke-miterlimit:4;stroke-dasharray:none;stroke-opacity:1"
         d="M 344.12575,462.72948 C 343.67108,463.41297 342.97303,464.05297 342.44569,464.78719" />
      <path
         id="path4378"
         style="fill:none;stroke:#231f20;stroke-width:1.91591012;stroke-linecap:butt;stroke-linejoin:miter;stroke-miterlimit:4;stroke-dasharray:none;stroke-opacity:1"
         d="M 344.79674,466.43274 C 343.76066,466.37473 343.06092,467.35233 342.78204,468.49043" />
    </g>
    <g
       transform="matrix(1.0825319,0.35912,-0.1630152,-0.8834308,266.74467,916.50767)"
       id="g4038">
      <path
         id="path4040"
         style="fill:#f5cda4;fill-opacity:1;fill-rule:nonzero;stroke:#231f20;stroke-width:1.91591012;stroke-linecap:butt;stroke-linejoin:miter;stroke-miterlimit:4;stroke-dasharray:none;stroke-opacity:1"
         d="M 352.01554,479.59914 C 350.81213,479.34024 350.18338,480.14282 348.99517,479.59812 C 347.90837,479.09999 347.07342,477.82519 346.29933,476.71918 C 344.80858,474.58691 343.20628,471.59304 342.53359,468.90157 C 341.97582,466.67299 341.76962,463.65944 342.19724,461.49506 C 342.88514,458.02794 345.06549,456.56776 346.97877,459.43737 C 348.41883,461.59655 349.25378,464.19379 351.00819,466.04231 C 352.76597,467.89394 355.76945,469.16254 356.71425,471.78358 C 357.49174,473.93657 357.53569,477.7527 355.7069,478.77482 C 353.93728,479.76588 351.26847,479.18803 349.32982,479.18803" />
      <path
         id="path4042"
         style="fill:#d62f27;fill-opacity:1;fill-rule:nonzero;stroke:#231f20;stroke-width:1.91591012;stroke-linecap:butt;stroke-linejoin:miter;stroke-miterlimit:4;stroke-dasharray:none;stroke-opacity:1"
         d="M 352.35189,477.13031 C 354.04038,477.90078 354.24658,479.50181 356.37961,478.06649 C 357.9667,476.99983 358.29289,475.06328 357.05905,473.5182 C 356.34579,472.62657 353.80207,471.13222 352.68823,471.75149 C 350.51127,472.96313 352.62739,475.06742 352.35189,477.13031" />
      <path
         id="path4044"
         style="fill:#ffffff;fill-opacity:1;fill-rule:nonzero;stroke:#231f20;stroke-width:1.91591012;stroke-linecap:butt;stroke-linejoin:miter;stroke-miterlimit:4;stroke-dasharray:none;stroke-opacity:1"
         d="M 349.32982,468.49043 C 349.72703,465.68505 354.34631,461.74878 356.37961,461.49506 C 359.49969,461.10673 363.88236,461.00731 365.44578,464.78823 C 367.19342,469.01961 365.36127,474.3736 361.0817,473.83818 C 357.68612,473.41152 354.44771,471.81156 351.00819,471.78152" />
      <path
         id="path4046"
         style="fill:#ffffff;fill-opacity:1;fill-rule:nonzero;stroke:#231f20;stroke-width:1.91591012;stroke-linecap:butt;stroke-linejoin:miter;stroke-miterlimit:4;stroke-dasharray:none;stroke-opacity:1"
         d="M 349.66618,474.25035 C 349.71012,477.52072 351.31579,478.49728 352.44146,481.24468 C 353.52657,483.8906 351.20762,486.52617 348.99349,485.36735 C 347.12414,484.38871 345.46775,481.39278 344.62941,479.18699 C 344.31504,478.35955 343.57474,476.35258 344.00743,475.45369 C 344.41307,474.61591 346.28919,474.54757 346.97877,473.83922" />
      <path
         id="path4048"
         style="fill:none;stroke:#231f20;stroke-width:1.91591012;stroke-linecap:butt;stroke-linejoin:miter;stroke-miterlimit:4;stroke-dasharray:none;stroke-opacity:1"
         d="M 344.12575,462.72948 C 343.67108,463.41297 342.97303,464.05297 342.44569,464.78719" />
      <path
         id="path4050"
         style="fill:none;stroke:#231f20;stroke-width:1.91591012;stroke-linecap:butt;stroke-linejoin:miter;stroke-miterlimit:4;stroke-dasharray:none;stroke-opacity:1"
         d="M 344.79674,466.43274 C 343.76066,466.37473 343.06092,467.35233 342.78204,468.49043" />
    </g>
  </g>
</svg>
